<svg width="96" height="96" xmlns="http://www.w3.org/2000/svg" xmlns:xlink="http://www.w3.org/1999/xlink" xml:space="preserve" overflow="hidden"><defs><clipPath id="clip0"><rect x="0" y="0" width="96" height="96"/></clipPath></defs><g clip-path="url(#clip0)"><path d="M48 10C27.0132 10 10 27.0132 10 48 10 68.9868 27.0132 86 48 86 68.9868 86 86 68.9868 86 48 86 27.0132 68.9868 10 48 10ZM48 84C28.1177 84 12 67.8822 12 48 12 28.1177 28.1177 12 48 12 67.8822 12 84 28.1177 84 48 83.9776 67.873 67.873 83.9776 48 84Z"/><path d="M65.9424 62.374C58.0186 72.2833 43.5619 73.8929 33.6526 65.969 32.325 64.9074 31.1192 63.7017 30.0576 62.374 29.7119 61.9432 29.0824 61.8743 28.6516 62.22 28.2208 62.5657 28.1519 63.1952 28.4976 63.626 37.1128 74.3967 52.8282 76.144 63.5989 67.5287 65.04 66.376 66.3489 65.0671 67.5016 63.626 67.8473 63.1952 67.7784 62.5657 67.3476 62.22 66.9168 61.8743 66.2873 61.9432 65.9416 62.374Z"/><path d="M74.31 35.31C72.91 34.83 67.09 33.01 62.5494 33.01 58.7294 33.01 49.9988 34.95 47.9987 35.3706 45.9987 34.9506 37.2687 33.01 33.448 33.01 29.4384 33.2134 25.4783 33.9879 21.6874 35.31 21.5074 35.37 21.3874 35.55 21.3274 35.86L21.3274 38.3407C21.3041 38.7792 21.4851 39.2037 21.8174 39.4907L22.5374 40.0407C22.6574 42.4615 22.9974 46.0424 23.9974 47.863 25.3874 50.2837 29.6874 53.0144 34.0574 53.0144 41.6974 53.0144 45.328 47.1928 46.7281 41.8613 46.883 41.2834 47.3999 40.8764 47.9981 40.8613L48.0034 40.8613C48.6058 40.8614 49.1292 41.2752 49.2682 41.8613 50.6082 47.1928 54.2382 53.0144 61.9388 53.0144 66.2988 53.0144 70.6088 50.2837 71.9988 47.863 73.0888 46.1025 73.3988 42.4615 73.4588 40.0407L74.1788 39.4307C74.5219 39.1517 74.7052 38.7214 74.6688 38.2807L74.6688 35.8C74.6639 35.5775 74.5206 35.3818 74.31 35.31ZM67.3587 35.5424 58.4118 50.4536C57.7179 50.2175 57.0545 49.9 56.4353 49.5078L65.0353 35.175C65.8135 35.2688 66.5966 35.3955 67.3587 35.5422ZM62.7987 35.0146 54.8576 48.25C54.3216 47.7175 53.8407 47.1323 53.422 46.5034L60.22 35.1743C60.9931 35.077 61.7709 35.0219 62.55 35.0093 62.6314 35.0093 62.7161 35.0132 62.799 35.0144ZM52.2945 44.4952C51.9192 43.6713 51.6079 42.8197 51.3635 41.948L54.9293 36.0056C55.8393 35.8372 56.7686 35.6743 57.6736 35.5303ZM40.0339 35.8186 31.1888 50.561C30.5049 50.3514 29.8407 50.0821 29.2039 49.7561L37.7892 35.4473C38.5222 35.5588 39.278 35.6851 40.0339 35.8186ZM25.1013 44.8875C24.8963 43.8785 24.7512 42.8582 24.6667 41.832L28.4038 35.6036C29.23 35.4536 30.0605 35.3291 30.8954 35.2302ZM23.3275 36.87C24.1184 36.6167 24.9175 36.3914 25.7209 36.1877L24.1709 38.7719 23.752 38.4519 23.3279 38.1279ZM26.002 47.2737 33.3531 35.0215C33.4012 35.0188 33.449 35.0115 33.4971 35.0094 34.2102 35.023 34.9221 35.0726 35.6302 35.1581L27.5021 48.7051C26.9384 48.2995 26.4336 47.8178 26.002 47.2737ZM33.272 50.9761 42.1335 36.2061C42.9147 36.3561 43.6627 36.5052 44.3442 36.6446L35.8109 50.8677C35.2313 50.9623 34.6452 51.0115 34.058 51.0148 33.7955 51.0148 33.5334 51 33.2722 50.9761ZM48.004 38.8615 47.974 38.8615 47.9489 38.8621C46.4632 38.9067 45.182 39.9188 44.7947 41.3538 44.0884 44.0431 42.4306 48.0878 38.6795 49.9747L46.4175 37.0779 46.9334 37.1879 47.5879 37.327 47.9991 37.4135 48.4103 37.327 49.0649 37.1879C49.7888 37.0333 50.9439 36.787 52.291 36.5159L50.3126 39.8129C49.6985 39.2039 48.8688 38.862 48.004 38.8615ZM60.4658 50.9177 69.4221 35.9907C70.2256 36.1846 70.9595 36.3822 71.5868 36.5615L62.9543 50.95C62.6175 50.991 62.2787 51.0128 61.9394 51.0153 61.4466 51.0135 60.9545 50.9809 60.4658 50.9177ZM70.2994 46.8105 70.282 46.8387 70.2655 46.8674C69.1197 48.4241 67.5326 49.6005 65.71 50.2442L71.4322 40.7069C71.3084 43.5535 70.8879 45.86 70.2994 46.8105Z"/></g></svg>