<svg width="115" height="115" xmlns="http://www.w3.org/2000/svg" xmlns:xlink="http://www.w3.org/1999/xlink" xml:space="preserve" overflow="hidden"><defs><clipPath id="clip0"><rect x="0" y="0" width="115" height="115"/></clipPath></defs><g clip-path="url(#clip0)"><path d="M57.4832 11.9792C32.3567 11.9792 11.9876 32.3483 11.9876 57.4748 11.9876 82.6014 32.3567 102.971 57.4832 102.971 82.6098 102.971 102.979 82.6014 102.979 57.4748 102.979 57.4733 102.979 57.4716 102.979 57.47 102.988 32.3548 82.6344 11.9878 57.5192 11.9792 57.5072 11.9792 57.4952 11.9792 57.4832 11.9792ZM79.7872 61.525 61.5334 61.525 61.5334 79.7741 53.4331 79.7741 53.4331 61.5202 35.1792 61.5202 35.1792 53.4199 53.4331 53.4199 53.4331 35.166 61.5334 35.166 61.5334 53.4199 79.7872 53.4199Z"/></g></svg>