<svg width="116" height="116" xmlns="http://www.w3.org/2000/svg" xmlns:xlink="http://www.w3.org/1999/xlink" xml:space="preserve" overflow="hidden"><defs><clipPath id="clip0"><rect x="0" y="0" width="116" height="116"/></clipPath></defs><g clip-path="url(#clip0)"><path d="M88.2083 99.0833 27.7917 99.0833 27.7917 16.9167 88.2083 16.9167 88.2083 99.0833ZM95.4583 9.66667 20.5417 9.66667 20.5417 106.333 95.4583 106.333 95.4583 9.66667Z"/><path d="M70.0833 24.1667 79.75 24.1667 79.75 33.8333 70.0833 33.8333Z"/><path d="M36.25 26.5833 60.4167 26.5833 60.4167 31.4167 36.25 31.4167Z"/><path d="M70.0833 43.5 79.75 43.5 79.75 53.1667 70.0833 53.1667Z"/><path d="M36.25 45.9167 60.4167 45.9167 60.4167 50.75 36.25 50.75Z"/><path d="M70.0833 62.8333 79.75 62.8333 79.75 72.5 70.0833 72.5Z"/><path d="M36.25 65.25 60.4167 65.25 60.4167 70.0833 36.25 70.0833Z"/><path d="M70.0833 82.1667 79.75 82.1667 79.75 91.8333 70.0833 91.8333Z"/><path d="M36.25 84.5833 60.4167 84.5833 60.4167 89.4167 36.25 89.4167Z"/></g></svg>