<svg width="96" height="96" xmlns="http://www.w3.org/2000/svg" xmlns:xlink="http://www.w3.org/1999/xlink" xml:space="preserve" overflow="hidden"><defs><clipPath id="clip0"><rect x="0" y="0" width="96" height="96"/></clipPath></defs><g clip-path="url(#clip0)"><path d="M74.005 81.999 74.005 7.999 22.005 7.999 22.005 81.999 10.005 81.999 10.005 87.999 22.005 87.999 24.004 87.999 28.005 87.999 28.005 13.999 68.005 13.999 68.005 87.999 72.005 87.999 74.005 87.999 86.005 87.999 86.005 81.999 74.005 81.999Z"/><path d="M31.005 88 60.005 84 60.005 21 31.005 17ZM49 52 53.45 52C53.6526 50.9158 54.5515 50.0986 55.65 50 56.951 50 58 51.343 58 53 58 54.657 56.949 56 55.652 56 54.5535 55.9014 53.6546 55.0842 53.452 54L49 54Z"/></g></svg>